<?xml version="1.0" standalone="no"?>
<!DOCTYPE svg PUBLIC "-//W3C//DTD SVG 20010904//EN"
 "http://www.w3.org/TR/2001/REC-SVG-20010904/DTD/svg10.dtd">
<svg version="1.0" xmlns="http://www.w3.org/2000/svg"
 width="492.000000pt" height="82.000000pt" viewBox="0 0 492.000000 82.000000"
 preserveAspectRatio="xMidYMid meet">

<g transform="translate(0.000000,82.000000) scale(0.100000,-0.100000)"
fill="#000000" stroke="none">
<path d="M185 805 c-5 -2 -22 -6 -37 -9 -34 -8 -93 -59 -116 -100 -15 -27 -17
-73 -20 -363 l-3 -333 346 0 c375 0 374 0 426 57 54 58 54 54 57 416 l3 337
-323 -1 c-178 0 -327 -2 -333 -4z m425 -120 l0 -25 -135 0 c-172 0 -175 -2
-175 -125 l0 -84 138 -3 137 -3 0 -25 0 -25 -137 -3 -138 -3 0 -102 c0 -145
-5 -141 169 -145 l141 -4 0 -24 0 -24 -156 0 -156 0 -29 29 -29 29 0 252 0
252 29 29 29 29 156 0 156 0 0 -25z"/>
<path d="M1120 405 c0 -263 3 -405 10 -405 7 0 10 142 10 405 0 263 -3 405
-10 405 -7 0 -10 -142 -10 -405z"/>
<path d="M1933 683 l-63 -4 0 -278 0 -278 109 -7 c111 -8 173 1 218 30 56 36
85 166 72 326 -8 101 -40 166 -91 191 -40 20 -136 28 -245 20z m215 -63 c53
-33 67 -76 67 -220 0 -202 -32 -240 -202 -240 l-93 0 0 240 0 240 98 0 c80 0
103 -4 130 -20z"/>
<path d="M3049 679 c-85 -24 -129 -119 -129 -279 0 -228 72 -303 274 -286 85
7 100 13 91 37 -4 11 -26 13 -108 11 -93 -3 -105 -1 -136 20 -50 34 -64 81
-64 218 0 135 14 184 63 218 29 19 46 22 130 22 77 0 99 3 103 15 4 8 2 17 -4
20 -18 12 -184 14 -220 4z"/>
<path d="M4607 675 c-91 -32 -122 -101 -121 -275 0 -225 62 -300 234 -288 90
7 130 32 161 101 20 45 23 69 23 177 1 142 -11 195 -54 244 -47 53 -158 72
-243 41z m173 -50 c55 -28 65 -63 65 -225 0 -120 -3 -151 -18 -177 -26 -48
-68 -66 -144 -61 -55 3 -68 8 -94 34 -38 39 -48 83 -49 210 0 135 24 199 85
224 33 14 124 11 155 -5z"/>
<path d="M1474 670 c-50 -20 -54 -39 -54 -273 l0 -219 29 -29 c29 -29 30 -29
149 -29 128 0 152 4 152 26 0 11 -24 14 -120 14 -159 0 -162 2 -158 138 l3 97
123 3 c114 2 122 4 122 22 0 19 -7 20 -125 20 l-125 0 0 80 c0 116 6 120 160
120 113 0 120 1 120 20 0 19 -6 20 -127 19 -71 0 -138 -4 -149 -9z"/>
<path d="M2402 458 c3 -203 5 -227 24 -263 26 -49 66 -74 132 -82 116 -13 196
25 220 105 8 25 12 118 12 251 l0 211 -25 0 -25 0 0 -202 c0 -221 -7 -267 -47
-298 -33 -26 -141 -28 -183 -3 -50 29 -54 51 -58 286 l-4 217 -25 0 -25 0 4
-222z"/>
<path d="M3520 677 c0 -3 -43 -129 -95 -281 l-94 -276 27 0 c26 0 30 6 58 93
l30 92 122 3 121 3 29 -93 c26 -85 31 -93 55 -96 15 -2 27 0 26 5 0 4 -42 130
-92 278 l-92 270 -48 3 c-26 2 -47 1 -47 -1z m104 -175 c25 -75 46 -140 46
-145 0 -4 -47 -7 -104 -7 l-104 0 44 136 c47 146 51 154 64 154 4 0 29 -62 54
-138z"/>
<path d="M3790 655 c0 -25 1 -25 90 -25 l90 0 0 -255 0 -255 25 0 25 0 0 255
0 254 93 3 c87 3 92 4 95 26 l3 22 -210 0 -211 0 0 -25z"/>
<path d="M4300 400 l0 -280 25 0 25 0 0 280 0 280 -25 0 -25 0 0 -280z"/>
</g>
</svg>