<?xml version="1.0" standalone="no"?>
<!DOCTYPE svg PUBLIC "-//W3C//DTD SVG 20010904//EN"
 "http://www.w3.org/TR/2001/REC-SVG-20010904/DTD/svg10.dtd">
<svg xmlns="http://www.w3.org/2000/svg" version="1.0" width="452.000000pt" height="182.000000pt" viewBox="0 0 452.000000 182.000000" preserveAspectRatio="xMidYMid meet">

<g transform="translate(0.000000,182.000000) scale(0.100000,-0.100000)" fill="#000000" stroke="none">
<path d="M280 1750 l-185 -5 -8 -385 c-4 -212 -5 -444 -2 -517 7 -123 8 -132 28 -137 12 -3 104 -6 205 -6 169 0 183 1 202 20 25 25 28 114 5 147 -13 19 -28 22 -135 28 l-121 8 3 136 3 136 115 3 c132 3 140 8 140 81 0 93 4 90 -134 93 l-121 3 -3 90 c-5 143 -14 134 136 137 l127 3 3 67 c4 82 -8 109 -46 106 -15 -1 -110 -5 -212 -8z"/>
<path d="M2690 1749 c-71 -14 -171 -68 -227 -124 -98 -98 -143 -231 -143 -418 1 -291 107 -449 337 -503 63 -15 194 -16 207 -3 3 3 7 39 8 80 l3 74 -107 0 c-102 0 -108 1 -149 30 -139 98 -179 410 -74 574 60 94 112 120 238 121 l87 0 0 79 0 79 -31 11 c-37 13 -84 13 -149 0z"/>
<path d="M727 1743 c-3 -5 -8 -237 -11 -516 l-6 -507 22 -11 c28 -15 229 -5 316 16 85 20 130 45 179 98 90 98 125 209 126 402 1 200 -40 323 -140 423 -85 86 -118 96 -314 100 -92 2 -169 0 -172 -5z m314 -184 c39 -19 88 -87 110 -154 9 -27 14 -89 14 -185 0 -135 -2 -149 -26 -200 -31 -67 -79 -123 -117 -139 -16 -7 -51 -11 -78 -9 l-49 3 -3 344 c-2 251 1 347 9 358 15 17 88 8 140 -18z"/>
<path d="M1560 1743 c-8 -3 -18 -11 -22 -17 -10 -14 -9 -443 1 -661 9 -200 25 -250 97 -314 54 -47 116 -66 214 -65 137 2 229 67 265 187 11 38 16 142 22 450 6 382 5 400 -12 413 -22 16 -102 18 -140 4 l-25 -10 6 -287 c7 -308 -2 -438 -33 -501 -49 -97 -158 -99 -201 -4 -15 33 -17 84 -17 422 l0 385 -70 2 c-38 1 -77 -1 -85 -4z"/>
<path d="M3276 1733 c-3 -10 -30 -135 -61 -278 -31 -143 -79 -361 -106 -485 -27 -124 -52 -235 -55 -248 -5 -23 -4 -23 83 -20 l87 3 7 30 c4 17 10 46 13 67 6 35 9 36 54 42 26 3 76 2 112 -2 l65 -7 20 -67 20 -68 83 0 c48 0 82 4 82 10 0 6 -15 72 -33 148 -19 75 -69 307 -112 515 l-79 377 -87 0 c-75 0 -88 -3 -93 -17z m129 -566 c15 -70 24 -134 21 -142 -11 -30 -126 -15 -126 16 0 17 45 225 56 258 9 29 23 -7 49 -132z"/>
<path d="M3864 1739 c-4 -7 -9 -246 -10 -531 l-3 -518 85 0 c60 0 84 4 85 13 0 6 1 95 2 196 2 137 5 185 14 188 12 4 151 -270 184 -362 l13 -35 98 0 c77 0 98 3 98 14 0 8 -47 109 -105 225 -58 116 -105 212 -105 214 0 2 27 31 61 65 79 82 100 130 100 230 1 133 -51 230 -154 284 -37 20 -60 23 -198 26 -120 3 -159 1 -165 -9z m273 -179 c51 -30 68 -65 67 -135 -1 -95 -45 -157 -122 -171 -58 -11 -64 7 -59 169 4 148 7 157 57 157 14 0 39 -9 57 -20z"/>
<path d="M110 500 c-29 -29 -32 -50 -28 -244 3 -173 4 -178 27 -197 15 -12 39 -19 66 -19 35 0 48 5 64 26 19 24 21 40 21 155 l0 129 -50 0 c-47 0 -50 -2 -50 -25 0 -18 5 -25 20 -25 19 0 20 -7 20 -99 0 -82 -3 -100 -16 -105 -39 -15 -45 9 -42 188 l3 171 28 3 c23 3 27 0 27 -22 0 -22 4 -26 30 -26 27 0 30 3 30 30 0 69 -101 109 -150 60z"/>
<path d="M3082 513 c-22 -9 -42 -61 -42 -111 0 -44 6 -57 61 -131 54 -74 60 -87 57 -124 -3 -37 -6 -42 -28 -42 -23 0 -25 4 -28 48 -3 45 -5 47 -33 47 -28 0 -29 -2 -29 -46 0 -75 30 -113 91 -114 53 0 82 35 87 109 4 57 4 58 -57 142 -55 74 -62 88 -59 124 3 35 6 40 28 40 22 0 25 -5 28 -42 3 -41 5 -43 34 -43 l31 0 -5 50 c-7 66 -37 100 -87 99 -20 0 -42 -3 -49 -6z"/>
<path d="M330 275 l0 -235 75 0 75 0 0 30 c0 29 -1 30 -50 30 l-50 0 0 95 0 95 45 0 c43 0 45 1 45 30 0 29 -2 30 -46 30 l-45 0 3 53 3 52 48 3 c42 3 47 5 47 28 0 23 -2 24 -75 24 l-75 0 0 -235z"/>
<path d="M540 275 l0 -235 30 0 c29 0 30 1 30 50 0 28 4 50 9 50 5 0 17 -22 27 -50 16 -44 21 -50 46 -50 33 0 33 2 12 64 -15 43 -15 48 0 65 13 14 16 43 16 159 0 175 -4 182 -105 182 l-65 0 0 -235z m109 171 c8 -9 11 -52 9 -127 l-3 -114 -27 -3 -28 -3 0 130 c0 121 1 131 19 131 10 0 24 -6 30 -14z"/>
<path d="M780 275 l0 -235 75 0 75 0 0 30 c0 29 -2 30 -45 30 l-45 0 0 95 0 95 45 0 c43 0 45 1 45 30 0 29 -2 30 -46 30 l-45 0 3 53 3 52 43 3 c37 3 42 6 42 28 0 23 -2 24 -75 24 l-75 0 0 -235z"/>
<path d="M1000 275 l0 -235 30 0 30 0 1 178 1 177 27 -175 27 -175 47 -3 47 -3 0 235 0 236 -25 0 c-24 0 -25 -3 -26 -67 -1 -38 -4 -117 -8 -178 l-6 -110 -24 178 -23 177 -49 0 -49 0 0 -235z"/>
<path d="M1305 485 c-25 -24 -25 -26 -25 -204 0 -175 1 -181 24 -207 51 -60 146 -20 146 62 0 32 -2 35 -27 32 -19 -2 -27 -9 -28 -26 -2 -29 -19 -46 -39 -39 -14 5 -16 31 -16 176 0 132 3 170 13 174 20 8 38 -7 40 -31 1 -17 8 -22 29 -22 25 0 28 4 28 30 0 44 -39 80 -85 80 -25 0 -44 -8 -60 -25z"/>
<path d="M1520 275 l0 -235 25 0 25 0 0 235 0 235 -25 0 -25 0 0 -235z"/>
<path d="M1710 506 c0 -10 -60 -409 -66 -438 -5 -26 -3 -28 24 -28 28 0 30 3 36 48 18 129 15 122 51 122 37 0 40 -5 50 -85 10 -77 14 -85 41 -85 31 0 31 -2 -14 255 l-38 210 -42 3 c-23 2 -42 1 -42 -2z m65 -179 l7 -67 -27 0 c-27 0 -28 0 -21 53 13 105 18 123 27 101 4 -11 10 -50 14 -87z"/>
<path d="M1940 275 l0 -235 50 0 c28 0 64 7 79 15 46 23 53 55 49 240 l-3 167 -28 24 c-23 20 -39 24 -88 24 l-59 0 0 -235z m108 163 c8 -8 12 -59 12 -163 0 -156 -5 -175 -42 -175 -17 0 -18 13 -18 175 0 162 1 175 18 175 10 0 23 -5 30 -12z"/>
<path d="M2212 487 c-21 -22 -22 -32 -22 -209 0 -210 4 -224 72 -235 32 -5 41 -1 68 25 l30 30 0 172 c0 216 -9 240 -94 240 -21 0 -40 -8 -54 -23z m72 -33 c23 -9 24 -342 1 -350 -8 -4 -22 -1 -30 6 -20 16 -22 319 -3 338 14 14 12 14 32 6z"/>
<path d="M2420 275 l0 -235 30 0 c29 0 30 1 30 51 0 62 16 62 40 -1 15 -38 22 -45 48 -48 l31 -3 -19 56 c-17 50 -18 59 -5 72 23 23 27 52 23 183 -3 114 -5 123 -27 141 -17 14 -39 19 -87 19 l-64 0 0 -235z m108 177 c9 -7 12 -39 10 -128 l-3 -119 -27 -3 -28 -3 0 124 c0 68 3 127 7 130 9 9 25 9 41 -1z"/>
<path d="M2830 275 l0 -235 75 0 75 0 0 30 c0 29 -1 30 -50 30 l-50 0 0 95 0 95 50 0 c49 0 50 1 50 30 0 29 -1 30 -51 30 l-50 0 3 53 3 52 48 3 c42 3 47 5 47 28 0 23 -2 24 -75 24 l-75 0 0 -235z"/>
<path d="M3309 481 l-29 -29 0 -167 c0 -186 8 -215 61 -234 44 -15 93 7 108 49 19 55 15 70 -18 70 -25 0 -30 -5 -33 -26 -4 -34 -34 -56 -48 -34 -6 9 -9 84 -7 175 l2 160 25 0 c18 0 26 -6 28 -22 3 -18 10 -23 33 -23 29 0 30 2 24 33 -15 74 -93 100 -146 48z"/>
<path d="M3549 491 c-23 -19 -24 -24 -27 -205 l-3 -186 31 -31 c27 -27 36 -31 68 -26 68 11 72 25 72 236 0 183 -1 188 -23 209 -29 28 -86 29 -118 3z m79 -43 c19 -19 17 -322 -3 -338 -8 -7 -22 -10 -30 -6 -13 4 -15 33 -15 175 0 165 2 176 31 180 3 1 10 -4 17 -11z"/>
<path d="M3760 275 l0 -235 75 0 75 0 0 30 c0 29 -2 30 -45 30 l-45 0 0 205 0 205 -30 0 -30 0 0 -235z"/>
<path d="M3999 278 l-35 -233 24 -3 c13 -2 26 -1 28 1 3 3 11 40 17 83 l12 79 35 0 c37 0 38 -2 55 -117 6 -45 8 -48 36 -48 24 0 29 4 25 18 -2 9 -22 115 -42 235 l-37 217 -42 0 -41 0 -35 -232z m96 72 c4 -38 7 -73 6 -77 -2 -12 -46 -10 -46 2 2 54 19 154 25 150 4 -3 11 -36 15 -75z"/>
<path d="M4250 275 l0 -235 30 0 c29 0 30 1 30 51 0 62 16 62 40 -1 15 -38 22 -45 49 -48 17 -2 31 -2 31 0 0 2 -8 25 -19 52 -18 48 -18 50 1 82 17 29 19 49 16 163 -4 163 -9 171 -110 171 l-68 0 0 -235z m104 179 c13 -5 16 -26 16 -130 l0 -124 -30 0 -30 0 0 123 c0 139 3 147 44 131z"/>
</g>
</svg>