<?xml version="1.0" standalone="no"?>
<!DOCTYPE svg PUBLIC "-//W3C//DTD SVG 20010904//EN"
 "http://www.w3.org/TR/2001/REC-SVG-20010904/DTD/svg10.dtd">
<svg width="188" height="81" version="1.1" xmlns="http://www.w3.org/2000/svg">
    <path fill="rgb(0,0,0)" stroke="rgb(0,0,0)" stroke-width="1" opacity="0" d="M 0 0 L 7 0.5 L 1 3 L 0.5 5 L 0 0 Z "></path>
    <path fill="rgb(0,0,0)" stroke="rgb(0,0,0)" stroke-width="1" opacity="0" d="M 17.5 0 L 47 0.5 L 42 4.5 L 33.5 30 L 31 19.5 L 24 5 L 17.5 1 L 17.5 0 Z "></path>
    <path fill="rgb(0,0,0)" stroke="rgb(0,0,0)" stroke-width="1" opacity="0" d="M 54 0 L 187.5 0 L 188 0.5 L 188 7.5 L 186.5 10 L 183.5 6 Q 179.3 5.3 178.5 8 Q 177.8 5.3 173.5 6 Q 171.8 9.1 170 7.5 L 169 13.5 L 170 16 L 178.5 19 L 187.5 13 L 188 81 L 69.5 81 L 69 78 L 67.5 78 L 68.5 76 L 76.5 77 Q 78 73.5 79.5 76 L 85.5 77 L 88 73 L 86 72.5 L 87 69.5 Q 86.5 66.5 82.5 67 L 78.5 70 L 78 68 L 76 67.5 L 79 63.5 L 76.5 62 L 70 64.5 Q 68.9 67.8 71.5 67 L 74.5 66 L 74.5 67 L 70 69.5 L 69.5 74 L 67.5 73 L 65 74 L 65.5 70 L 69 71 L 67.5 68 Q 63 67 62 69.5 L 61.5 71 L 61 69 Q 58 70.3 59 66.5 L 56 59 Q 52.2 57.5 53 60.5 L 49 70.5 L 49 74 Q 45.7 72.9 47 77 Q 51.7 78 53 74.5 Q 52.3 72.3 54.5 73 L 56 72.5 L 58.5 77 Q 62.3 78.3 61 74.5 L 62 74.5 L 63 81 L 0 81 L 0 9.5 L 5 13.5 L 12 25.5 L 12 28.5 L 14 30.5 L 19 44.5 L 28.5 57 L 32.5 58 L 40 54 L 45 46.5 L 52 31.5 L 55.5 16 L 59.5 21 L 61 21.5 L 59 22 L 57 27.5 L 56 46.5 Q 53.2 49.2 54 55.5 L 55.5 57 L 63.5 57 L 68 52.5 L 69 47.5 L 69 32.5 Q 66.3 30.8 68 24.5 L 64 20.5 L 67 18.5 L 68 15.5 L 64.5 11 Q 58.1 10.1 56.5 14 Q 57.3 4.4 54 0 Z M 146 15 L 142 20 L 142 51 L 141 52 Q 140 56 144 57 Q 150 58 154 56 L 156 54 L 156 30 L 162 32 L 168 32 Q 174 31 172 22 L 168 18 Q 160 18 156 22 L 154 18 Q 152 14 146 15 Z M 75 18 L 68 23 L 74 32 L 79 49 L 84 57 Q 90 58 93 55 L 100 45 L 105 32 L 105 23 L 103 20 L 99 21 L 94 27 L 90 36 L 84 21 L 79 18 L 75 18 Z M 122 19 L 113 22 Q 107 26 105 34 L 105 44 L 109 52 Q 113 56 120 58 Q 134 58 140 50 Q 141 44 139 43 L 134 43 L 127 47 Q 121 48 119 45 L 121 45 Q 127 45 132 42 L 137 36 L 137 27 L 135 25 Q 136 22 133 23 L 133 21 L 127 19 L 122 19 Z M 106 59 L 102 61 Q 99 62 100 68 L 107 71 Q 110 70 108 74 L 103 73 L 101 76 L 104 77 Q 110 78 112 76 L 113 74 Q 114 78 120 77 L 123 73 L 125 77 L 130 76 L 132 77 L 135 76 L 141 78 L 147 77 L 149 76 L 150 77 L 156 77 L 157 74 Q 153 72 156 71 Q 158 64 151 67 L 149 71 L 148 69 L 148 67 L 147 64 L 144 66 L 145 68 L 145 69 Q 143 65 136 66 Q 135 70 140 68 L 140 70 L 136 72 L 135 69 L 135 67 L 134 64 L 131 66 L 132 68 L 131 73 L 128 74 L 126 74 L 126 70 L 129 71 Q 131 72 130 70 Q 129 67 125 68 L 123 72 L 120 67 L 116 68 Q 113 67 114 70 L 108 67 Q 103 68 105 63 Q 110 62 108 66 Q 114 68 112 62 Q 111 58 106 59 Z M 90 67 Q 87 68 88 72 L 92 75 L 91 74 L 88 76 Q 89 78 95 77 Q 97 76 96 72 L 94 72 L 96 69 Q 95 66 90 67 Z "></path>
    <path fill="rgb(0,0,0)" stroke="rgb(0,0,0)" stroke-width="1" opacity="0" d="M 119.5 30 Q 124.8 28.8 126 31.5 Q 123.1 35.7 117 36 L 119.5 30 Z "></path>
    <path fill="rgb(0,0,0)" stroke="rgb(0,0,0)" stroke-width="1" opacity="0" d="M 74.5 70 L 75 74 Q 72 75.3 73 71.5 L 74.5 70 Z "></path><path fill="rgb(0,0,0)" stroke="rgb(0,0,0)" stroke-width="1" opacity="0" d="M 83.5 70 L 82.5 72 L 83.5 70 Z "></path>
    <path fill="rgb(0,0,0)" stroke="rgb(0,0,0)" stroke-width="1" opacity="0" d="M 117.5 70 L 119 74 Q 115.2 75.2 117.5 70 Z "></path>
    <path fill="rgb(0,0,0)" stroke="rgb(0,0,0)" stroke-width="1" opacity="0" d="M 149.5 73 L 152 73.5 L 149.5 74 L 149.5 73 Z "></path><path fill="rgb(254,254,254)" stroke="rgb(254,254,254)" stroke-width="1" opacity="0.4" d="M 7.5 0 L 10 0.5 L 7.5 1 L 7.5 0 Z "></path><path fill="rgb(254,254,254)" stroke="rgb(254,254,254)" stroke-width="1" opacity="0.4" d="M 14.5 0 L 18.5 1 L 24 5 L 26 9.5 L 24 8.5 L 18.5 2 L 14.5 1 L 14.5 0 Z "></path><path fill="rgb(254,254,254)" stroke="rgb(254,254,254)" stroke-width="1" opacity="0.4" d="M 47.5 0 L 50 0.5 L 47.5 1 L 47.5 0 Z "></path><path fill="rgb(254,254,254)" stroke="rgb(254,254,254)" stroke-width="1" opacity="0.4" d="M 51.5 0 Q 54.8 -1.1 54 1.5 L 56 4.5 L 56.5 14 L 59 12.5 L 57 17.5 Q 58 21 63.5 20 L 66 19 L 67 15.5 L 64.5 12 L 60 11.5 L 64.5 11 L 68 16.5 L 65.5 20 L 64 20.5 L 68 23.5 L 71.5 19 L 73 19.5 L 69 22.5 L 72 26.5 L 68 24.5 L 67.5 29 L 64.5 22 Q 58.1 21.9 56 17.5 L 55 15.5 L 55 4.5 L 52.5 1 L 51.5 0 Z "></path><path fill="rgb(254,254,254)" stroke="rgb(254,254,254)" stroke-width="1" opacity="0.4" d="M 4.5 1 L 6 1.5 L 3.5 3 L 4.5 1 Z "></path><path fill="rgb(254,254,254)" stroke="rgb(254,254,254)" stroke-width="1" opacity="0.4" d="M 45.5 1 L 43 4.5 L 42.5 6 L 42 4.5 L 45.5 1 Z "></path><path fill="rgb(254,254,254)" stroke="rgb(254,254,254)" stroke-width="1" opacity="0.4" d="M 173.5 6 Q 177.8 5.3 178.5 8 Q 179.2 5.3 183.5 6 L 186.5 10 L 187.5 8 L 188 12.5 L 184.5 15 L 184.5 14 L 187 12.5 L 186.5 11 Q 184.5 15 176.5 13 L 173 10.5 L 174.5 11 L 180.5 12 L 183.5 11 L 185 11.5 Q 185.8 7.8 183.5 7 L 180.5 7 L 177 9 Q 178.3 5.7 173.5 7 L 171 11.5 L 173 12 L 172.5 14 L 169 9.5 L 170.5 7 Q 172 9.5 173.5 6 Z "></path><path fill="rgb(254,254,254)" stroke="rgb(254,254,254)" stroke-width="1" opacity="0.4" d="M 0.5 7 L 9 18.5 L 7 17.5 L 0 8.5 L 0.5 7 Z "></path><path fill="rgb(254,254,254)" stroke="rgb(254,254,254)" stroke-width="1" opacity="0.4" d="M 41.5 7 L 42 8.5 L 40.5 11 L 40 9.5 L 41.5 7 Z "></path><path fill="rgb(254,254,254)" stroke="rgb(254,254,254)" stroke-width="1" opacity="0.4" d="M 26.5 11 L 28 13.5 L 27 13.5 L 26.5 11 Z "></path><path fill="rgb(254,254,254)" stroke="rgb(254,254,254)" stroke-width="1" opacity="0.4" d="M 169.5 13 L 172.5 17 L 170 16 L 169.5 13 Z "></path><path fill="rgb(254,254,254)" stroke="rgb(254,254,254)" stroke-width="1" opacity="0.4" d="M 174.5 13 L 183 15.5 L 177.5 19 L 177.5 18 L 180 16.5 L 174 15 L 174.5 13 Z "></path><path fill="rgb(254,254,254)" stroke="rgb(254,254,254)" stroke-width="1" opacity="0.4" d="M 28.5 15 L 31 21.5 L 30 21.5 L 28.5 15 Z "></path><path fill="rgb(254,254,254)" stroke="rgb(254,254,254)" stroke-width="1" opacity="0.4" d="M 38.5 15 L 39 17.5 L 38 17.5 L 38.5 15 Z "></path><path fill="rgb(254,254,254)" stroke="rgb(254,254,254)" stroke-width="1" opacity="0.4" d="M 145.5 15 Q 152 14 154 17.5 L 153.5 19 L 153 17 Q 150.9 15.4 145.5 16 L 143 19.5 L 142.5 50 L 142 19.5 L 145.5 15 Z "></path><path fill="rgb(254,254,254)" stroke="rgb(254,254,254)" stroke-width="1" opacity="0.4" d="M 54.5 17 L 55 19.5 L 54 19.5 L 54.5 17 Z "></path><path fill="rgb(254,254,254)" stroke="rgb(254,254,254)" stroke-width="1" opacity="0.4" d="M 74.5 18 Q 80.3 17.2 82 20.5 L 80.5 20 L 74.5 19 L 74.5 18 Z "></path><path fill="rgb(254,254,254)" stroke="rgb(254,254,254)" stroke-width="1" opacity="0.4" d="M 164.5 18 Q 170.7 17.3 172 21.5 Q 173.5 30.5 167.5 32 Q 159.9 33.1 157 29.5 L 158.5 29 Q 160.8 32.2 167.5 31 Q 172.5 29.5 171 21.5 Q 169.6 18.4 164.5 19 L 164.5 18 Z "></path><path fill="rgb(254,254,254)" stroke="rgb(254,254,254)" stroke-width="1" opacity="0.4" d="M 121.5 19 L 127 19.5 L 121.5 20 L 121.5 19 Z "></path><path fill="rgb(254,254,254)" stroke="rgb(254,254,254)" stroke-width="1" opacity="0.4" d="M 160.5 19 L 163 19.5 L 158.5 21 L 158.5 20 L 160.5 19 Z "></path><path fill="rgb(254,254,254)" stroke="rgb(254,254,254)" stroke-width="1" opacity="0.4" d="M 100.5 20 Q 104.5 19.5 105 22.5 Q 106.7 30.7 103.5 34 L 103 32.5 L 104 31.5 L 104 22.5 L 100.5 21 L 100.5 20 Z "></path><path fill="rgb(254,254,254)" stroke="rgb(254,254,254)" stroke-width="1" opacity="0.4" d="M 116.5 20 L 119 20.5 Q 112.6 21.6 109.5 26 L 112.5 22 L 116.5 20 Z "></path><path fill="rgb(254,254,254)" stroke="rgb(254,254,254)" stroke-width="1" opacity="0.4" d="M 128.5 20 L 133 21 L 133 23 Q 135.7 21.9 135 24.5 L 137 27.5 L 136 27.5 L 130.5 21 Q 127.5 21.5 128.5 20 Z "></path><path fill="rgb(254,254,254)" stroke="rgb(254,254,254)" stroke-width="1" opacity="0.4" d="M 154.5 20 L 155.5 22 L 157 21.5 L 154 23 L 154.5 20 Z "></path><path fill="rgb(254,254,254)" stroke="rgb(254,254,254)" stroke-width="1" opacity="0.4" d="M 83.5 21 L 86 25.5 L 85 25.5 L 83.5 21 Z "></path><path fill="rgb(254,254,254)" stroke="rgb(254,254,254)" stroke-width="1" opacity="0.4" d="M 98.5 21 L 96.5 24 L 98.5 21 Z "></path><path fill="rgb(254,254,254)" stroke="rgb(254,254,254)" stroke-width="1" opacity="0.4" d="M 10.5 22 L 12 24.5 L 10 23.5 L 10.5 22 Z "></path><path fill="rgb(254,254,254)" stroke="rgb(254,254,254)" stroke-width="1" opacity="0.4" d="M 36.5 22 L 37 23.5 L 35.5 27 L 35 24.5 L 36.5 22 Z "></path><path fill="rgb(254,254,254)" stroke="rgb(254,254,254)" stroke-width="1" opacity="0.4" d="M 53.5 22 L 54 24.5 L 52.5 28 L 52 25.5 L 53.5 22 Z "></path><path fill="rgb(254,254,254)" stroke="rgb(254,254,254)" stroke-width="1" opacity="0.4" d="M 31.5 23 L 33 28.5 L 32 28.5 L 31.5 23 Z "></path><path fill="rgb(254,254,254)" stroke="rgb(254,254,254)" stroke-width="1" opacity="0.4" d="M 95.5 25 L 95 26.5 L 91.5 34 L 91 32.5 L 95.5 25 Z "></path><path fill="rgb(254,254,254)" stroke="rgb(254,254,254)" stroke-width="1" opacity="0.4" d="M 12.5 26 L 14 29.5 L 12 28.5 L 12.5 26 Z "></path><path fill="rgb(254,254,254)" stroke="rgb(254,254,254)" stroke-width="1" opacity="0.4" d="M 57.5 27 L 58 34.5 L 57 35.5 L 56.5 44 L 56 34.5 L 57.5 27 Z "></path><path fill="rgb(254,254,254)" stroke="rgb(254,254,254)" stroke-width="1" opacity="0.4" d="M 108.5 27 L 108 28.5 L 107.5 30 L 107 28.5 L 108.5 27 Z "></path><path fill="rgb(254,254,254)" stroke="rgb(254,254,254)" stroke-width="1" opacity="0.4" d="M 51.5 29 L 52 31.5 L 50.5 34 L 50 32.5 L 51.5 29 Z "></path><path fill="rgb(254,254,254)" stroke="rgb(254,254,254)" stroke-width="1" opacity="0.4" d="M 87.5 29 L 89.5 36 L 91 35.5 Q 89.5 38.5 88 35.5 L 87.5 29 Z "></path><path fill="rgb(254,254,254)" stroke="rgb(254,254,254)" stroke-width="1" opacity="0.4" d="M 119.5 29 Q 124.8 27.8 126 30.5 L 124.5 30 Q 119.3 28.8 118 31.5 L 117.5 33 L 117 31.5 L 119.5 29 Z "></path><path fill="rgb(254,254,254)" stroke="rgb(254,254,254)" stroke-width="1" opacity="0.4" d="M 14.5 31 L 16 34.5 L 15 34.5 L 14.5 31 Z "></path><path fill="rgb(254,254,254)" stroke="rgb(254,254,254)" stroke-width="1" opacity="0.4" d="M 106.5 31 L 107 32.5 L 106 33.5 L 106 43.5 L 107 45.5 L 106 45.5 Q 103.3 41.7 105 33.5 L 106.5 31 Z "></path><path fill="rgb(254,254,254)" stroke="rgb(254,254,254)" stroke-width="1" opacity="0.4" d="M 155.5 31 L 156 40.5 L 155 40.5 L 155.5 31 Z "></path><path fill="rgb(254,254,254)" stroke="rgb(254,254,254)" stroke-width="1" opacity="0.4" d="M 68.5 32 L 69 47.5 L 68 47.5 L 68.5 32 Z "></path><path fill="rgb(254,254,254)" stroke="rgb(254,254,254)" stroke-width="1" opacity="0.4" d="M 125.5 32 L 123.5 35 L 119.5 36 L 119.5 35 L 125.5 32 Z "></path><path fill="rgb(254,254,254)" stroke="rgb(254,254,254)" stroke-width="1" opacity="0.4" d="M 116.5 34 L 118 36.5 L 116 37 L 116.5 34 Z "></path><path fill="rgb(254,254,254)" stroke="rgb(254,254,254)" stroke-width="1" opacity="0.4" d="M 136.5 34 L 137 35.5 L 135 36.5 L 136.5 34 Z "></path><path fill="rgb(254,254,254)" stroke="rgb(254,254,254)" stroke-width="1" opacity="0.4" d="M 102.5 35 L 103 37.5 L 101.5 40 L 101 38.5 L 102.5 35 Z "></path><path fill="rgb(254,254,254)" stroke="rgb(254,254,254)" stroke-width="1" opacity="0.4" d="M 48.5 37 L 49 38.5 L 42.5 49 L 44 46.5 L 48.5 37 Z "></path><path fill="rgb(254,254,254)" stroke="rgb(254,254,254)" stroke-width="1" opacity="0.4" d="M 17.5 38 L 21 45.5 L 19 44.5 L 17.5 38 Z "></path><path fill="rgb(254,254,254)" stroke="rgb(254,254,254)" stroke-width="1" opacity="0.4" d="M 134.5 38 L 131.5 42 L 125.5 44 L 125.5 43 Q 131.8 42.3 134.5 38 Z "></path><path fill="rgb(254,254,254)" stroke="rgb(254,254,254)" stroke-width="1" opacity="0.4" d="M 77.5 40 L 79 44.5 L 78 44.5 L 77.5 40 Z "></path><path fill="rgb(254,254,254)" stroke="rgb(254,254,254)" stroke-width="1" opacity="0.4" d="M 99.5 43 L 100 44.5 L 98 45.5 L 99.5 43 Z "></path><path fill="rgb(254,254,254)" stroke="rgb(254,254,254)" stroke-width="1" opacity="0.4" d="M 118.5 43 L 119.5 45 L 123.5 44 L 123.5 45 L 120 45.5 L 126 47.5 L 122.5 48 L 118 44.5 L 118.5 43 Z "></path><path fill="rgb(254,254,254)" stroke="rgb(254,254,254)" stroke-width="1" opacity="0.4" d="M 133.5 43 L 135 43.5 L 130.5 46 L 131.5 44 L 133.5 43 Z "></path><path fill="rgb(254,254,254)" stroke="rgb(254,254,254)" stroke-width="1" opacity="0.4" d="M 137.5 43 L 140 44.5 L 138.5 44 L 137.5 43 Z "></path><path fill="rgb(254,254,254)" stroke="rgb(254,254,254)" stroke-width="1" opacity="0.4" d="M 79.5 46 L 82 51.5 L 80 50.5 L 79.5 46 Z "></path><path fill="rgb(254,254,254)" stroke="rgb(254,254,254)" stroke-width="1" opacity="0.4" d="M 21.5 47 L 28.5 56 L 30 56.5 L 28.5 57 Q 23 53 21.5 47 Z "></path><path fill="rgb(254,254,254)" stroke="rgb(254,254,254)" stroke-width="1" opacity="0.4" d="M 55.5 47 L 56 49.5 L 54.5 53 L 54 50.5 L 55.5 47 Z "></path><path fill="rgb(254,254,254)" stroke="rgb(254,254,254)" stroke-width="1" opacity="0.4" d="M 97.5 47 L 97 48.5 L 94.5 52 L 96 49.5 L 97.5 47 Z "></path><path fill="rgb(254,254,254)" stroke="rgb(254,254,254)" stroke-width="1" opacity="0.4" d="M 107.5 47 L 112.5 54 L 115 55.5 L 113.5 55 L 109 51.5 L 107.5 47 Z "></path><path fill="rgb(254,254,254)" stroke="rgb(254,254,254)" stroke-width="1" opacity="0.4" d="M 139.5 48 L 140 49.5 L 133.5 55 L 134.5 53 L 139 49.5 L 139.5 48 Z "></path><path fill="rgb(254,254,254)" stroke="rgb(254,254,254)" stroke-width="1" opacity="0.4" d="M 155.5 49 L 156 53.5 Q 154.3 56.8 149.5 57 L 149.5 56 L 155 53.5 L 155.5 49 Z "></path><path fill="rgb(254,254,254)" stroke="rgb(254,254,254)" stroke-width="1" opacity="0.4" d="M 41.5 50 L 40 52.5 Q 40.8 54.8 38.5 54 Q 36.6 57.6 31.5 58 L 31.5 57 Q 39.1 56.1 41.5 50 Z "></path><path fill="rgb(254,254,254)" stroke="rgb(254,254,254)" stroke-width="1" opacity="0.4" d="M 67.5 50 L 68 52.5 L 63.5 57 L 60.5 57 L 60.5 56 Q 65.3 56.8 66 53.5 L 67.5 50 Z "></path><path fill="rgb(254,254,254)" stroke="rgb(254,254,254)" stroke-width="1" opacity="0.4" d="M 141.5 51 L 143.5 56 L 146 56.5 L 143.5 57 Q 139.7 55.7 141.5 51 Z "></path><path fill="rgb(254,254,254)" stroke="rgb(254,254,254)" stroke-width="1" opacity="0.4" d="M 82.5 53 L 83.5 55 L 82.5 53 Z "></path><path fill="rgb(254,254,254)" stroke="rgb(254,254,254)" stroke-width="1" opacity="0.4" d="M 93.5 53 L 92.5 55 Q 90.5 58 84.5 57 L 84.5 56 L 89.5 56 L 93.5 53 Z "></path><path fill="rgb(254,254,254)" stroke="rgb(254,254,254)" stroke-width="1" opacity="0.4" d="M 54.5 55 L 59 56.5 L 55.5 57 L 54.5 55 Z "></path><path fill="rgb(254,254,254)" stroke="rgb(254,254,254)" stroke-width="1" opacity="0.4" d="M 130.5 55 L 132 55.5 L 127.5 57 L 127.5 56 L 130.5 55 Z "></path><path fill="rgb(254,254,254)" stroke="rgb(254,254,254)" stroke-width="1" opacity="0.4" d="M 119.5 57 L 126 57.5 L 119.5 58 L 119.5 57 Z "></path><path fill="rgb(254,254,254)" stroke="rgb(254,254,254)" stroke-width="1" opacity="0.4" d="M 53.5 59 L 56 59.5 L 53.5 60 L 53.5 59 Z "></path><path fill="rgb(254,254,254)" stroke="rgb(254,254,254)" stroke-width="1" opacity="0.4" d="M 105.5 59 L 109 59.5 Q 103.1 59.6 101 63.5 Q 100.3 68.3 103.5 69 L 105 69.5 L 103.5 70 L 100 67.5 Q 98.8 62.3 101.5 61 L 105.5 59 Z "></path><path fill="rgb(254,254,254)" stroke="rgb(254,254,254)" stroke-width="1" opacity="0.4" d="M 110.5 60 L 112 62.5 L 111 62.5 L 110.5 60 Z "></path><path fill="rgb(254,254,254)" stroke="rgb(254,254,254)" stroke-width="1" opacity="0.4" d="M 76.5 62 L 79 63.5 L 75.5 68 L 71 69 L 70.5 71 L 70 69.5 L 78 64.5 Q 78.7 61.9 76 63 L 75.5 65 L 71 64 L 71.5 66 L 73.5 65 L 73.5 66 L 70 67 L 71.5 63 L 76.5 62 Z "></path><path fill="rgb(254,254,254)" stroke="rgb(254,254,254)" stroke-width="1" opacity="0.4" d="M 105.5 62 L 109 62 Q 107.5 65.8 110.5 65 L 112 64.5 L 112 66 L 108 66 Q 109.5 61.5 105 63 Q 102.9 68.2 107.5 67 L 114 70 Q 112.9 67.3 115.5 68 L 119.5 67 L 122 70.5 L 121 70.5 L 119.5 68 Q 114.8 67.3 114 70.5 Q 113 75 115.5 76 Q 120.5 77 121.5 74 L 119.5 77 Q 113 78 112 73.5 Q 112.8 69.8 110.5 69 L 104 66.5 Q 103.3 62.8 105.5 62 Z "></path><path fill="rgb(254,254,254)" stroke="rgb(254,254,254)" stroke-width="1" opacity="0.4" d="M 57.5 63 L 59 69 Q 61.7 67.9 61 70.5 L 62 70.5 L 63.5 68 Q 68 67 69 69.5 Q 69.8 72.1 66.5 71 L 66.5 70 L 68 69.5 L 63 69 L 60.5 75 L 60 70.5 L 57 65.5 L 57.5 63 Z "></path><path fill="rgb(254,254,254)" stroke="rgb(254,254,254)" stroke-width="1" opacity="0.4" d="M 132.5 64 L 135 65.5 L 134 67.5 L 135.5 72 L 137 71.5 L 136 74.5 L 142.5 77 Q 145.3 75.8 143 74.5 Q 144.5 68 141 66.5 L 145 68.5 L 144 65.5 L 146.5 64 L 148 66.5 L 147.5 69 L 146 68.5 L 145 76 L 148 74.5 Q 146.5 70.1 149.5 71 L 150.5 73 L 149 73.5 L 151.5 74 L 154 73 Q 155.3 76.3 150.5 75 L 150.5 76 L 156 76.5 L 149 77 L 148.5 75 Q 146.5 78.5 140.5 78 L 134.5 76 L 131.5 77 L 129.5 76 L 124.5 77 L 123 74.5 L 124 74.5 Q 123.1 77.9 128.5 76 L 129.5 74 L 126.5 75 L 125 71.5 L 126 71.5 Q 124.9 74.8 127.5 74 L 131 73 L 132 67.5 L 131 65.5 L 132.5 64 Z M 132 65 L 132 67 L 134 66 L 132 65 Z M 145 65 Q 144 68 147 67 Q 148 64 145 65 Z M 132 68 L 132 75 L 131 76 L 134 76 L 134 69 L 132 68 Z "></path><path fill="rgb(254,254,254)" stroke="rgb(254,254,254)" stroke-width="1" opacity="0.4" d="M 54.5 66 L 56 69.5 L 55 69.5 L 54.5 66 Z "></path><path fill="rgb(254,254,254)" stroke="rgb(254,254,254)" stroke-width="1" opacity="0.4" d="M 136 66 L 138 66.5 L 136 67.5 L 136 66 Z "></path><path fill="rgb(254,254,254)" stroke="rgb(254,254,254)" stroke-width="1" opacity="0.4" d="M 82.5 67 Q 86.5 66.5 87 69.5 L 86 72.5 L 88 73 L 88.5 75 L 93 73 L 92.5 75 L 90.5 75 L 89 75.5 L 91 76.5 L 89.5 77 Q 87.5 73 85.5 77 Q 80.2 77.8 78.5 75 Q 77.5 78 72.5 77 L 72.5 76 Q 77 77 78 74.5 L 77 68.5 L 78 68.5 L 78.5 70 L 81 68.5 L 79 73.5 Q 80 77 85.5 76 L 86.5 74 L 82 75 L 82.5 73 L 84 73.5 L 82 70.5 Q 83.5 67.5 85 70.5 L 84.5 72 Q 87.1 72.8 86 69.5 L 82.5 68 L 82.5 67 Z "></path><path fill="rgb(254,254,254)" stroke="rgb(254,254,254)" stroke-width="1" opacity="0.4" d="M 89.5 67 L 91 67.5 L 88.5 69 L 89.5 67 Z "></path><path fill="rgb(254,254,254)" stroke="rgb(254,254,254)" stroke-width="1" opacity="0.4" d="M 93.5 67 L 96 68.5 L 94 71.5 L 96 72 Q 97 75.8 94.5 77 L 92 76.5 L 95 76 L 93.5 72 Q 91.3 72.8 92 70.5 L 91.5 69 L 94.5 70 L 93.5 67 Z "></path><path fill="rgb(254,254,254)" stroke="rgb(254,254,254)" stroke-width="1" opacity="0.4" d="M 150.5 67 L 152 67.5 L 149.5 69 L 150.5 67 Z "></path><path fill="rgb(254,254,254)" stroke="rgb(254,254,254)" stroke-width="1" opacity="0.4" d="M 154.5 67 Q 156.8 66.3 156 68.5 L 154.5 67 Z "></path><path fill="rgb(254,254,254)" stroke="rgb(254,254,254)" stroke-width="1" opacity="0.4" d="M 50.5 68 L 51 70.5 L 48 75.5 L 50.5 76 L 53.5 72 L 55 72.5 L 53 73 L 50.5 77 Q 45.3 78.5 47 74 Q 50.3 75.3 49 70.5 L 50.5 68 Z "></path><path fill="rgb(254,254,254)" stroke="rgb(254,254,254)" stroke-width="1" opacity="0.4" d="M 124.5 68 Q 129 67 130 69.5 Q 130.8 71.8 128.5 71 L 128.5 69 Q 123.1 67.1 124 70.5 L 123 70.5 L 124.5 68 Z "></path><path fill="rgb(254,254,254)" stroke="rgb(254,254,254)" stroke-width="1" opacity="0.4" d="M 74.5 69 Q 76.8 69.8 76 73.5 L 73.5 75 L 72 72.5 L 73 72.5 Q 72.3 75.1 75 74 L 74.5 70 L 73 70.5 L 74.5 69 Z "></path><path fill="rgb(254,254,254)" stroke="rgb(254,254,254)" stroke-width="1" opacity="0.4" d="M 117.5 69 L 118.5 71 L 117 70.5 L 118 74.5 L 116 75 Q 114.8 70.4 117.5 69 Z "></path><path fill="rgb(254,254,254)" stroke="rgb(254,254,254)" stroke-width="1" opacity="0.4" d="M 140.5 69 L 139.5 71 L 138 70.5 L 140.5 69 Z "></path><path fill="rgb(254,254,254)" stroke="rgb(254,254,254)" stroke-width="1" opacity="0.4" d="M 153.5 69 L 156 70.5 Q 153.5 72 157 73.5 L 156.5 75 L 154.5 72 Q 151.4 72.7 153.5 69 Z "></path><path fill="rgb(254,254,254)" stroke="rgb(254,254,254)" stroke-width="1" opacity="0.4" d="M 64.5 70 L 65 74 L 68.5 73 L 71 74 Q 72.3 77 68.5 76 L 66 80 Q 61.5 81.8 63 76.5 L 62.5 75 L 65 76.5 L 64.5 78 L 67.5 76 L 68.5 74 L 65.5 75 Q 62.8 73.8 64.5 70 Z "></path><path fill="rgb(254,254,254)" stroke="rgb(254,254,254)" stroke-width="1" opacity="0.4" d="M 106.5 70 L 109 71.5 L 107.5 75 L 102 74 L 101.5 76 L 101 74.5 L 104.5 73 L 108 74 Q 109.5 70.3 106.5 71 L 106.5 70 Z "></path><path fill="rgb(254,254,254)" stroke="rgb(254,254,254)" stroke-width="1" opacity="0.4" d="M 88.5 71 L 89.5 73 L 88.5 71 Z "></path><path fill="rgb(254,254,254)" stroke="rgb(254,254,254)" stroke-width="1" opacity="0.4" d="M 56.5 72 L 58 76 L 61 76.5 L 58.5 77 Q 54.8 75.2 56.5 72 Z "></path><path fill="rgb(254,254,254)" stroke="rgb(254,254,254)" stroke-width="1" opacity="0.4" d="M 138 72 L 140 72.5 L 139.5 75 Q 136.5 75.7 138 72 Z "></path><path fill="rgb(254,254,254)" stroke="rgb(254,254,254)" stroke-width="1" opacity="0.4" d="M 103.5 76 L 106 76.5 L 103.5 77 L 103.5 76 Z "></path><path fill="rgb(254,254,254)" stroke="rgb(254,254,254)" stroke-width="1" opacity="0.4" d="M 107.5 76 L 110 76.5 L 107.5 77 L 107.5 76 Z "></path><path fill="rgb(254,254,254)" stroke="rgb(254,254,254)" stroke-width="1" opacity="0.4" d="M 68.5 78 L 69 80.5 L 68 80.5 L 68.5 78 Z "></path><path fill="rgb(251,251,251)" stroke="rgb(251,251,251)" stroke-width="1" opacity="0.996078431372549" d="M 185.5 12 L 184.5 14 L 183 13.5 L 185.5 12 Z "></path><path fill="rgb(251,251,251)" stroke="rgb(251,251,251)" stroke-width="1" opacity="0.996078431372549" d="M 171.5 13 L 173.5 16 L 171 15 L 171.5 13 Z "></path><path fill="rgb(251,251,251)" stroke="rgb(251,251,251)" stroke-width="1" opacity="0.996078431372549" d="M 175.5 16 L 178 16.5 L 175.5 17 L 175.5 16 Z "></path><path fill="rgb(251,251,251)" stroke="rgb(251,251,251)" stroke-width="1" opacity="0.996078431372549" d="M 84.5 54 L 89 55.5 L 85.5 56 L 84.5 54 Z "></path><path fill="rgb(251,251,251)" stroke="rgb(251,251,251)" stroke-width="1" opacity="0.996078431372549" d="M 106.5 60 L 108 60.5 L 104.5 62 L 104.5 61 L 106.5 60 Z "></path><path fill="rgb(251,251,251)" stroke="rgb(251,251,251)" stroke-width="1" opacity="0.996078431372549" d="M 73.5 64 L 75.5 65 L 77 64.5 L 74.5 66 L 73.5 64 Z "></path><path fill="rgb(251,251,251)" stroke="rgb(251,251,251)" stroke-width="1" opacity="0.996078431372549" d="M 117.5 68 L 119 68.5 L 116.5 70 L 117.5 68 Z "></path><path fill="rgb(251,251,251)" stroke="rgb(251,251,251)" stroke-width="1" opacity="0.996078431372549" d="M 136.5 72 L 137 74.5 L 136 74.5 L 136.5 72 Z "></path><path fill="rgb(251,251,251)" stroke="rgb(251,251,251)" stroke-width="1" opacity="0.996078431372549" d="M 85.5 74 L 87 74.5 L 82.5 76 L 82.5 75 L 85.5 74 Z "></path><path fill="rgb(251,251,251)" stroke="rgb(251,251,251)" stroke-width="1" opacity="0.996078431372549" d="M 73.5 75 L 76 75.5 L 73.5 76 L 73.5 75 Z "></path><path fill="rgb(251,251,251)" stroke="rgb(251,251,251)" stroke-width="1" opacity="0.996078431372549" d="M 89.5 75 L 94 75.5 L 89.5 76 L 89.5 75 Z "></path><path fill="rgb(251,251,251)" stroke="rgb(251,251,251)" stroke-width="1" opacity="0.996078431372549" d="M 104.5 75 L 108 75.5 L 104.5 76 L 104.5 75 Z "></path><path fill="rgb(251,251,251)" stroke="rgb(251,251,251)" stroke-width="1" opacity="0.996078431372549" d="M 116.5 75 L 119 75.5 L 116.5 76 L 116.5 75 Z "></path><path fill="rgb(251,251,251)" stroke="rgb(251,251,251)" stroke-width="1" opacity="0.996078431372549" d="M 125.5 75 L 128 75.5 L 125.5 76 L 125.5 75 Z "></path><path fill="rgb(251,251,251)" stroke="rgb(251,251,251)" stroke-width="1" opacity="0.996078431372549" d="M 150.5 75 L 154 75.5 L 150.5 76 L 150.5 75 Z "></path><path fill="rgb(252,252,252)" stroke="rgb(252,252,252)" stroke-width="1" opacity="1" d="M 7.5 1 L 9.5 2 L 13.5 1 Q 20.9 2.1 24 7.5 L 33.5 31 L 36 27.5 L 42 7.5 L 47.5 1 L 49.5 1 Q 53.3 0.3 54 2.5 L 55 11.5 L 54 12.5 L 54 20.5 L 47 40.5 L 37.5 54 Q 35.8 56.8 30.5 56 L 26 54 L 19 41.5 L 9 17.5 L 1 7.5 L 1 5.5 L 7.5 1 Z "></path><path fill="rgb(252,252,252)" stroke="rgb(252,252,252)" stroke-width="1" opacity="1" d="M 173 7 Q 176.8 6.3 178 9.5 Q 178.8 12.1 175.5 11 L 173 10 L 173 7 Z "></path><path fill="rgb(252,252,252)" stroke="rgb(252,252,252)" stroke-width="1" opacity="1" d="M 181.5 7 Q 185.7 5.7 184 10.5 L 181.5 11 Q 177.3 12.1 179 8 L 181.5 7 Z "></path><path fill="rgb(252,252,252)" stroke="rgb(252,252,252)" stroke-width="1" opacity="1" d="M 60 12 L 62.5 13 Q 64.3 10.3 66 14.5 Q 66.8 19.3 63.5 20 L 58 19 L 57 15.5 L 60 14 L 60 12 Z "></path><path fill="rgb(252,252,252)" stroke="rgb(252,252,252)" stroke-width="1" opacity="1" d="M 178.5 13 L 183 13.5 L 179.5 15 L 178.5 13 Z "></path><path fill="rgb(252,252,252)" stroke="rgb(252,252,252)" stroke-width="1" opacity="1" d="M 146.5 16 Q 152 15 153 18.5 L 154 23 L 161.5 20 L 163.5 20 L 166.5 19 L 170 20 L 171 26.5 L 168.5 30 L 166.5 31 L 161.5 30 L 157.5 28 L 155 30.5 L 155 51.5 L 151.5 56 Q 146.7 57.3 145.5 55 L 143.5 55 Q 140.5 55.9 142 51.5 L 144 43.5 L 143 42.5 L 143 21.5 L 146.5 16 Z "></path><path fill="rgb(252,252,252)" stroke="rgb(252,252,252)" stroke-width="1" opacity="1" d="M 75.5 19 L 79.5 21 L 80.5 20 L 84 23.5 L 87 29.5 L 88 37 Q 91.8 38.5 91 35.5 L 98.5 22 L 101.5 21 Q 105.5 22.5 104 29.5 Q 100.5 45.5 90.5 55 Q 85.1 55.6 83 54 L 70 21 L 75.5 19 Z "></path><path fill="rgb(252,252,252)" stroke="rgb(252,252,252)" stroke-width="1" opacity="1" d="M 122.5 20 Q 131.7 19.8 135 25.5 L 137 32.5 L 130.5 41 L 126.5 43 L 124.5 43 L 121.5 44 Q 120.4 41.3 117 42 L 119 47 L 123.5 49 L 125.5 49 Q 129.8 44.8 137.5 44 Q 139.8 44.8 139 48.5 L 131.5 55 Q 130 52.5 128.5 56 L 120.5 57 L 116 56 L 115.5 54 L 114.5 55 L 109 49.5 L 106 41.5 L 106 35.5 L 107 30.5 L 113.5 23 L 117.5 21 L 119.5 21 L 122.5 20 Z M 122 28 L 120 29 L 116 34 Q 115 37 118 38 L 120 37 L 122 37 L 127 33 L 126 29 L 122 28 Z "></path><path fill="rgb(252,252,252)" stroke="rgb(252,252,252)" stroke-width="1" opacity="1" d="M 61.5 22 L 66 23 L 68 31.5 L 68 48.5 L 64.5 55 L 62.5 56 L 60.5 55 L 58.5 55 L 56.5 56 Q 54.3 55.3 55 51.5 L 58 38.5 L 58 27.5 L 61.5 22 Z "></path><path fill="rgb(252,252,252)" stroke="rgb(252,252,252)" stroke-width="1" opacity="1" d="M 55.5 60 L 60 75.5 L 58 74.5 L 57 71 L 54.5 72 Q 53.2 69.8 52 72.5 L 50.5 76 Q 47.8 74.8 50 73.5 L 52 64.5 L 55.5 60 Z M 54 66 L 53 70 L 56 70 Q 58 65 54 66 Z "></path><path fill="rgb(252,252,252)" stroke="rgb(252,252,252)" stroke-width="1" opacity="1" d="M 108.5 60 L 111 64 Q 108.3 65.1 109 62.5 L 108.5 60 Z "></path><path fill="rgb(252,252,252)" stroke="rgb(252,252,252)" stroke-width="1" opacity="1" d="M 103.5 61 Q 106.8 62.8 103 64.5 L 105 67.5 Q 103 71 101 66.5 Q 100.3 61.8 103.5 61 Z "></path><path fill="rgb(252,252,252)" stroke="rgb(252,252,252)" stroke-width="1" opacity="1" d="M 141.5 67 L 142 75.5 Q 140.5 78.5 139 75.5 Q 142 73 141.5 67 Z "></path><path fill="rgb(252,252,252)" stroke="rgb(252,252,252)" stroke-width="1" opacity="1" d="M 82.5 68 L 84 68.5 L 82 69 L 81 72.5 L 82 75.5 L 80 74.5 L 79 72.5 L 82.5 68 Z "></path><path fill="rgb(252,252,252)" stroke="rgb(252,252,252)" stroke-width="1" opacity="1" d="M 75.5 69 Q 77.8 68.3 77 70.5 L 78 73.5 L 76 74.5 L 77 71.5 L 75.5 69 Z "></path><path fill="rgb(252,252,252)" stroke="rgb(252,252,252)" stroke-width="1" opacity="1" d="M 89.5 69 L 91 71.5 L 89 72 L 89.5 69 Z "></path><path fill="rgb(252,252,252)" stroke="rgb(252,252,252)" stroke-width="1" opacity="1" d="M 109.5 69 L 112 70 L 112 74 L 110 74 Q 111.1 76.7 108.5 76 L 109 74.5 L 109.5 69 Z "></path><path fill="rgb(252,252,252)" stroke="rgb(252,252,252)" stroke-width="1" opacity="1" d="M 115.5 69 L 116 71.5 L 115 73.5 L 115.5 75 Q 112.1 75.9 114 70.5 L 115.5 69 Z "></path><path fill="rgb(252,252,252)" stroke="rgb(252,252,252)" stroke-width="1" opacity="1" d="M 119 69 L 121 69 L 121 75 L 119 74.5 L 120 71.5 L 119 69 Z "></path><path fill="rgb(252,252,252)" stroke="rgb(252,252,252)" stroke-width="1" opacity="1" d="M 133.5 69 L 134 74.5 L 131.5 76 L 132 74.5 Q 131 70 133.5 69 Z "></path><path fill="rgb(252,252,252)" stroke="rgb(252,252,252)" stroke-width="1" opacity="1" d="M 146.5 69 L 147 75.5 L 145 74.5 L 146.5 69 Z "></path><path fill="rgb(252,252,252)" stroke="rgb(252,252,252)" stroke-width="1" opacity="1" d="M 150.5 69 L 152 71.5 L 150.5 72 Q 147.5 70.5 150.5 69 Z "></path><path fill="rgb(252,252,252)" stroke="rgb(252,252,252)" stroke-width="1" opacity="1" d="M 71 70 L 73 70.5 L 72 73.5 L 73 75.5 L 71 74.5 L 71 70 Z "></path><path fill="rgb(252,252,252)" stroke="rgb(252,252,252)" stroke-width="1" opacity="1" d="M 124.5 70 L 126 74.5 L 124.5 75 L 123 71.5 L 124.5 70 Z "></path><path fill="rgb(252,252,252)" stroke="rgb(252,252,252)" stroke-width="1" opacity="1" d="M 138.5 71 L 138 72.5 L 137.5 75 L 137 72.5 L 138.5 71 Z "></path><path fill="rgb(252,252,252)" stroke="rgb(252,252,252)" stroke-width="1" opacity="1" d="M 154.5 72 L 156 74.5 L 154 75.5 L 154.5 72 Z "></path><path fill="rgb(252,252,252)" stroke="rgb(252,252,252)" stroke-width="1" opacity="1" d="M 63.5 73 L 67 79.5 L 64.5 81 L 64.5 80 Q 66.8 80.8 66 78.5 L 63 74.5 L 63.5 73 Z "></path><path fill="rgb(252,252,252)" stroke="rgb(252,252,252)" stroke-width="1" opacity="1" d="M 93 73 Q 96 72 95 75 Q 92 76 93 73 Z "></path><path fill="rgb(252,252,252)" stroke="rgb(252,252,252)" stroke-width="1" opacity="1" d="M 102.5 74 Q 104.8 73.3 104 75.5 L 102.5 74 Z "></path><path fill="rgb(251,251,251)" stroke="rgb(251,251,251)" stroke-width="1" opacity="0.9529411764705882" d="M 10.5 0 L 14 0.5 L 10.5 1 L 10.5 0 Z "></path><path fill="rgb(251,251,251)" stroke="rgb(251,251,251)" stroke-width="1" opacity="0.9529411764705882" d="M 2.5 3 L 1.5 5 L 2.5 3 Z "></path><path fill="rgb(251,251,251)" stroke="rgb(251,251,251)" stroke-width="1" opacity="0.9529411764705882" d="M 44.5 3 L 43.5 5 L 44.5 3 Z "></path><path fill="rgb(251,251,251)" stroke="rgb(251,251,251)" stroke-width="1" opacity="0.9529411764705882" d="M 1.5 8 L 4.5 12 L 1.5 8 Z "></path><path fill="rgb(251,251,251)" stroke="rgb(251,251,251)" stroke-width="1" opacity="0.9529411764705882" d="M 184.5 8 L 185 10.5 L 184 10.5 L 184.5 8 Z "></path><path fill="rgb(251,251,251)" stroke="rgb(251,251,251)" stroke-width="1" opacity="0.9529411764705882" d="M 172.5 9 L 173.5 11 L 175 10.5 L 173.5 13 Q 171 12 172.5 9 Z "></path><path fill="rgb(251,251,251)" stroke="rgb(251,251,251)" stroke-width="1" opacity="0.9529411764705882" d="M 169.5 10 L 171 12.5 L 169 13 L 169.5 10 Z "></path><path fill="rgb(251,251,251)" stroke="rgb(251,251,251)" stroke-width="1" opacity="0.9529411764705882" d="M 178.5 11 L 181 11.5 L 178.5 12 L 178.5 11 Z "></path><path fill="rgb(251,251,251)" stroke="rgb(251,251,251)" stroke-width="1" opacity="0.9529411764705882" d="M 186.5 11 L 187 12.5 L 185 13.5 L 186.5 11 Z "></path><path fill="rgb(251,251,251)" stroke="rgb(251,251,251)" stroke-width="1" opacity="0.9529411764705882" d="M 54.5 12 L 55 16.5 L 54 16.5 L 54.5 12 Z "></path><path fill="rgb(251,251,251)" stroke="rgb(251,251,251)" stroke-width="1" opacity="0.9529411764705882" d="M 59.5 12 L 58.5 14 L 59.5 12 Z "></path><path fill="rgb(251,251,251)" stroke="rgb(251,251,251)" stroke-width="1" opacity="0.9529411764705882" d="M 64.5 12 L 65.5 14 L 64.5 12 Z "></path><path fill="rgb(251,251,251)" stroke="rgb(251,251,251)" stroke-width="1" opacity="0.9529411764705882" d="M 145.5 16 L 144.5 18 L 145.5 16 Z "></path><path fill="rgb(251,251,251)" stroke="rgb(251,251,251)" stroke-width="1" opacity="0.9529411764705882" d="M 179.5 16 L 178.5 18 L 176 17.5 L 179.5 16 Z "></path><path fill="rgb(251,251,251)" stroke="rgb(251,251,251)" stroke-width="1" opacity="0.9529411764705882" d="M 119.5 20 L 122 20.5 L 119.5 21 L 119.5 20 Z "></path><path fill="rgb(251,251,251)" stroke="rgb(251,251,251)" stroke-width="1" opacity="0.9529411764705882" d="M 102.5 21 L 103.5 23 L 102.5 21 Z "></path><path fill="rgb(251,251,251)" stroke="rgb(251,251,251)" stroke-width="1" opacity="0.9529411764705882" d="M 60.5 22 L 59.5 24 L 60.5 22 Z "></path><path fill="rgb(251,251,251)" stroke="rgb(251,251,251)" stroke-width="1" opacity="0.9529411764705882" d="M 69.5 22 L 72 25.5 L 69 23.5 L 69.5 22 Z "></path><path fill="rgb(251,251,251)" stroke="rgb(251,251,251)" stroke-width="1" opacity="0.9529411764705882" d="M 112.5 23 L 109.5 27 L 112.5 23 Z "></path><path fill="rgb(251,251,251)" stroke="rgb(251,251,251)" stroke-width="1" opacity="0.9529411764705882" d="M 32.5 29 L 33.5 31 L 32.5 29 Z "></path><path fill="rgb(251,251,251)" stroke="rgb(251,251,251)" stroke-width="1" opacity="0.9529411764705882" d="M 156.5 29 L 155.5 31 L 156.5 29 Z "></path><path fill="rgb(251,251,251)" stroke="rgb(251,251,251)" stroke-width="1" opacity="0.9529411764705882" d="M 126.5 31 L 127 32.5 L 124 34.5 L 126.5 31 Z "></path><path fill="rgb(251,251,251)" stroke="rgb(251,251,251)" stroke-width="1" opacity="0.9529411764705882" d="M 57.5 35 L 58 38.5 L 57 38.5 L 57.5 35 Z "></path><path fill="rgb(251,251,251)" stroke="rgb(251,251,251)" stroke-width="1" opacity="0.9529411764705882" d="M 134.5 37 L 131.5 41 L 134.5 37 Z "></path><path fill="rgb(251,251,251)" stroke="rgb(251,251,251)" stroke-width="1" opacity="0.9529411764705882" d="M 155.5 41 L 156 48.5 L 155 48.5 L 155.5 41 Z "></path><path fill="rgb(251,251,251)" stroke="rgb(251,251,251)" stroke-width="1" opacity="0.9529411764705882" d="M 117 42 L 121 43.5 L 119.5 44 L 117 43.5 L 117 42 Z "></path><path fill="rgb(251,251,251)" stroke="rgb(251,251,251)" stroke-width="1" opacity="0.9529411764705882" d="M 138.5 44 L 140 47.5 L 139 47.5 L 138.5 44 Z "></path><path fill="rgb(251,251,251)" stroke="rgb(251,251,251)" stroke-width="1" opacity="0.9529411764705882" d="M 97.5 46 L 96.5 48 L 97.5 46 Z "></path><path fill="rgb(251,251,251)" stroke="rgb(251,251,251)" stroke-width="1" opacity="0.9529411764705882" d="M 41.5 49 L 40.5 51 L 41.5 49 Z "></path><path fill="rgb(251,251,251)" stroke="rgb(251,251,251)" stroke-width="1" opacity="0.9529411764705882" d="M 138.5 49 L 135.5 53 L 138.5 49 Z "></path><path fill="rgb(251,251,251)" stroke="rgb(251,251,251)" stroke-width="1" opacity="0.9529411764705882" d="M 110.5 51 L 112.5 54 L 110.5 51 Z "></path><path fill="rgb(251,251,251)" stroke="rgb(251,251,251)" stroke-width="1" opacity="0.9529411764705882" d="M 93.5 52 L 92.5 54 L 93.5 52 Z "></path><path fill="rgb(251,251,251)" stroke="rgb(251,251,251)" stroke-width="1" opacity="0.9529411764705882" d="M 154.5 52 L 155 53.5 L 153 54.5 L 154.5 52 Z "></path><path fill="rgb(251,251,251)" stroke="rgb(251,251,251)" stroke-width="1" opacity="0.9529411764705882" d="M 54.5 53 L 56 55.5 L 54 54.5 L 54.5 53 Z "></path><path fill="rgb(251,251,251)" stroke="rgb(251,251,251)" stroke-width="1" opacity="0.9529411764705882" d="M 30.5 56 L 33 56.5 L 30.5 57 L 30.5 56 Z "></path><path fill="rgb(251,251,251)" stroke="rgb(251,251,251)" stroke-width="1" opacity="0.9529411764705882" d="M 146.5 56 L 149 56.5 L 146.5 57 L 146.5 56 Z "></path><path fill="rgb(251,251,251)" stroke="rgb(251,251,251)" stroke-width="1" opacity="0.9529411764705882" d="M 109.5 60 L 110.5 62 L 109.5 60 Z "></path><path fill="rgb(251,251,251)" stroke="rgb(251,251,251)" stroke-width="1" opacity="0.9529411764705882" d="M 76.5 63 Q 78.8 62.3 78 64.5 L 76.5 63 Z "></path><path fill="rgb(251,251,251)" stroke="rgb(251,251,251)" stroke-width="1" opacity="0.9529411764705882" d="M 133.5 65 L 132.5 67 L 133.5 65 Z "></path><path fill="rgb(251,251,251)" stroke="rgb(251,251,251)" stroke-width="1" opacity="0.9529411764705882" d="M 145.5 65 L 146.5 67 Q 143.7 67.7 145.5 65 Z "></path><path fill="rgb(251,251,251)" stroke="rgb(251,251,251)" stroke-width="1" opacity="0.9529411764705882" d="M 138.5 66 L 141 66.5 L 140.5 69 L 137 67.5 L 138.5 66 Z "></path><path fill="rgb(251,251,251)" stroke="rgb(251,251,251)" stroke-width="1" opacity="0.9529411764705882" d="M 91.5 67 Q 93.8 66.3 93 68.5 L 91.5 67 Z "></path><path fill="rgb(251,251,251)" stroke="rgb(251,251,251)" stroke-width="1" opacity="0.9529411764705882" d="M 152 67 Q 155 66 154 69 L 151.5 70 L 149 69.5 L 152 68.5 L 152 67 Z "></path><path fill="rgb(251,251,251)" stroke="rgb(251,251,251)" stroke-width="1" opacity="0.9529411764705882" d="M 81.5 68 L 82.5 70 L 80 69.5 L 81.5 68 Z "></path><path fill="rgb(251,251,251)" stroke="rgb(251,251,251)" stroke-width="1" opacity="0.9529411764705882" d="M 89.5 68 L 92 71.5 L 90 72.5 L 90 70.5 L 89.5 69 L 88.5 71 L 88 69.5 L 89.5 68 Z "></path><path fill="rgb(251,251,251)" stroke="rgb(251,251,251)" stroke-width="1" opacity="0.9529411764705882" d="M 119.5 68 L 118.5 70 L 119.5 68 Z "></path><path fill="rgb(251,251,251)" stroke="rgb(251,251,251)" stroke-width="1" opacity="0.9529411764705882" d="M 132 68 L 134 68.5 L 132 69.5 L 132 68 Z "></path><path fill="rgb(251,251,251)" stroke="rgb(251,251,251)" stroke-width="1" opacity="0.9529411764705882" d="M 142.5 68 L 143 76.5 L 142 76.5 L 142.5 68 Z "></path><path fill="rgb(251,251,251)" stroke="rgb(251,251,251)" stroke-width="1" opacity="0.9529411764705882" d="M 146.5 68 Q 149.3 69.3 148 74.5 L 147 74.5 L 146.5 68 Z "></path><path fill="rgb(251,251,251)" stroke="rgb(251,251,251)" stroke-width="1" opacity="0.9529411764705882" d="M 124.5 69 L 126.5 69 L 129 69.5 L 125.5 71 L 124.5 69 Z "></path><path fill="rgb(251,251,251)" stroke="rgb(251,251,251)" stroke-width="1" opacity="0.9529411764705882" d="M 77.5 70 L 77 71.5 L 76.5 73 L 76 71.5 L 77.5 70 Z "></path><path fill="rgb(251,251,251)" stroke="rgb(251,251,251)" stroke-width="1" opacity="0.9529411764705882" d="M 140.5 70 L 141 72.5 L 139 71.5 L 140.5 70 Z "></path><path fill="rgb(251,251,251)" stroke="rgb(251,251,251)" stroke-width="1" opacity="0.9529411764705882" d="M 53.5 71 L 52.5 73 L 53.5 71 Z "></path><path fill="rgb(251,251,251)" stroke="rgb(251,251,251)" stroke-width="1" opacity="0.9529411764705882" d="M 62.5 71 Q 65.3 72.3 63 73.5 L 63.5 75 Q 64.8 72.8 66 75.5 L 63.5 76 L 62 74.5 L 62.5 71 Z "></path><path fill="rgb(251,251,251)" stroke="rgb(251,251,251)" stroke-width="1" opacity="0.9529411764705882" d="M 70.5 71 L 71 73.5 L 70 73.5 L 70.5 71 Z "></path><path fill="rgb(251,251,251)" stroke="rgb(251,251,251)" stroke-width="1" opacity="0.9529411764705882" d="M 81.5 71 L 82.5 73 Q 79.7 73.7 81.5 71 Z "></path><path fill="rgb(251,251,251)" stroke="rgb(251,251,251)" stroke-width="1" opacity="0.9529411764705882" d="M 121.5 71 L 122 73.5 L 121 73.5 L 121.5 71 Z "></path><path fill="rgb(251,251,251)" stroke="rgb(251,251,251)" stroke-width="1" opacity="0.9529411764705882" d="M 152.5 71 L 151.5 73 L 152.5 71 Z "></path><path fill="rgb(251,251,251)" stroke="rgb(251,251,251)" stroke-width="1" opacity="0.9529411764705882" d="M 119.5 73 L 119.5 76 Q 116.5 74.5 119.5 73 Z "></path><path fill="rgb(251,251,251)" stroke="rgb(251,251,251)" stroke-width="1" opacity="0.9529411764705882" d="M 75.5 74 L 78 74.5 Q 75.9 77.8 75.5 74 Z "></path><path fill="rgb(251,251,251)" stroke="rgb(251,251,251)" stroke-width="1" opacity="0.9529411764705882" d="M 111.5 74 L 110.5 76 L 111.5 74 Z "></path>
    </svg>